<?xml version="1.0" standalone="no"?>
<!DOCTYPE svg PUBLIC "-//W3C//DTD SVG 20010904//EN"
 "http://www.w3.org/TR/2001/REC-SVG-20010904/DTD/svg10.dtd">
<svg version="1.0" xmlns="http://www.w3.org/2000/svg"
 width="512.000000pt" height="512.000000pt" viewBox="0 0 512.000000 512.000000"
 preserveAspectRatio="xMidYMid meet">

<g transform="translate(0.000000,512.000000) scale(0.100000,-0.100000)"
fill="#000000" stroke="none">
<path d="M1106 5109 c-286 -38 -551 -172 -752 -381 -174 -181 -287 -405 -336
-666 -19 -98 -19 -2906 0 -3004 101 -535 480 -921 1012 -1035 80 -17 173 -18
1530 -18 1604 0 1493 -4 1705 66 375 125 689 451 799 832 53 182 51 121 51
1662 0 1598 4 1488 -66 1700 -120 361 -424 664 -787 785 -208 69 -85 64 -1662
66 -795 1 -1455 -2 -1494 -7z m2944 -527 c276 -84 461 -273 533 -543 l22 -84
0 -1395 0 -1395 -22 -84 c-74 -275 -269 -470 -544 -544 l-84 -22 -1400 0
-1400 0 -80 23 c-274 79 -458 264 -537 537 l-23 80 0 1405 0 1405 23 80 c59
207 180 363 362 468 57 33 184 75 258 86 31 5 678 8 1437 7 l1380 -1 75 -23z"/>
<path d="M3778 4086 c-99 -27 -165 -96 -187 -198 -24 -106 32 -221 132 -272
238 -121 473 148 324 371 -55 82 -173 125 -269 99z"/>
<path d="M2386 3829 c-482 -66 -886 -396 -1036 -847 -51 -155 -65 -241 -65
-422 0 -181 14 -267 65 -422 142 -424 503 -738 960 -835 118 -25 382 -25 500
0 458 97 818 410 960 835 51 155 65 241 65 422 0 120 -5 188 -18 250 -56 263
-174 484 -354 662 -180 177 -394 291 -648 343 -95 20 -332 28 -429 14z m384
-529 c265 -74 459 -269 531 -536 31 -111 31 -297 0 -408 -72 -269 -268 -465
-537 -537 -115 -32 -299 -32 -409 0 -272 77 -460 265 -536 536 -32 113 -32
297 0 410 57 205 179 363 361 468 56 32 183 75 258 87 84 13 246 3 332 -20z"/>
</g>
</svg>
