<?xml version="1.0" standalone="no"?>
<!DOCTYPE svg PUBLIC "-//W3C//DTD SVG 20010904//EN"
 "http://www.w3.org/TR/2001/REC-SVG-20010904/DTD/svg10.dtd">
<svg version="1.0" xmlns="http://www.w3.org/2000/svg"
 width="512.000000pt" height="512.000000pt" viewBox="0 0 512.000000 512.000000"
 preserveAspectRatio="xMidYMid meet">

<g transform="translate(0.000000,512.000000) scale(0.100000,-0.100000)"
fill="#000000" stroke="none">
<path d="M2708 4514 l-3 -609 -95 -7 c-446 -34 -919 -199 -1314 -458 -434
-286 -767 -661 -996 -1125 -136 -274 -207 -490 -255 -770 -39 -232 -46 -388
-43 -984 l3 -555 179 420 c197 462 252 574 363 742 180 273 388 493 653 691
422 316 937 507 1468 544 l42 3 0 -603 c0 -332 3 -603 6 -603 3 0 375 302 827
672 452 370 990 809 1195 977 204 167 372 307 372 311 0 4 -118 103 -262 221
-145 117 -677 551 -1183 963 -506 411 -928 755 -937 764 -17 14 -18 -16 -20
-594z"/>
</g>
</svg>
