<svg width="0" height="0" class="hidden">
  <symbol version="1.0" xmlns="http://www.w3.org/2000/svg" preserveAspectRatio="xMidYMid meet" viewBox="0 0 512.000000 512.000000" id="github">
    <g transform="translate(0.000000,512.000000) scale(0.100000,-0.100000)" stroke="none">
      <path d="M2247 4995 c-1043 -126 -1913 -881 -2167 -1880 -59 -234 -74 -356
        -74 -610 -1 -129 5 -259 13 -315 108 -783 536 -1431 1212 -1841 206 -124 479
        -239 570 -239 45 0 55 4 85 34 22 22 34 44 35 63 2 40 -3 448 -4 449 -1 1 -42
        -5 -92 -13 -108 -17 -273 -12 -360 12 -115 30 -202 79 -279 158 -64 63 -81 90
        -144 217 -83 169 -138 244 -230 308 -142 100 -165 144 -87 171 31 10 54 11
        103 3 136 -22 259 -109 355 -251 120 -178 219 -247 389 -271 78 -11 185 1 285
        31 71 22 71 22 98 131 18 70 67 163 111 209 l25 26 -63 7 c-103 12 -293 55
        -386 88 -168 59 -276 123 -395 237 -222 212 -326 520 -314 931 4 141 9 178 31
        255 36 121 88 223 164 323 48 64 60 86 53 100 -21 40 -41 168 -41 261 0 107
        18 219 50 317 25 73 38 78 145 63 136 -19 330 -99 506 -209 71 -45 80 -48 111
        -39 84 24 309 59 450 69 228 17 538 -10 737 -64 l54 -15 91 56 c175 108 358
        183 495 203 108 15 117 10 145 -79 13 -42 29 -111 36 -154 17 -103 8 -293 -17
        -372 l-19 -60 46 -56 c150 -187 212 -376 211 -645 -1 -671 -304 -1054 -930
        -1179 -64 -12 -142 -26 -174 -30 l-58 -7 35 -38 c43 -48 88 -135 112 -216 15
        -51 18 -122 23 -504 5 -334 9 -451 19 -467 17 -31 63 -53 108 -53 93 0 453
        163 659 297 165 109 299 219 435 359 385 395 615 869 691 1424 20 144 17 507
        -5 655 -172 1140 -1081 2015 -2234 2150 -154 18 -464 18 -615 0z">
      </path>
    </g>
  </symbol>
  <symbol version="1.0" xmlns="http://www.w3.org/2000/svg" preserveAspectRatio="xMidYMid meet" viewBox="0 0 512.000000 512.000000" id="instagram">
    <g transform="translate(0.000000,512.000000) scale(0.100000,-0.100000)" stroke="none">
      <path d="M1106 5109 c-286 -38 -551 -172 -752 -381 -174 -181 -287 -405 -336
        -666 -19 -98 -19 -2906 0 -3004 101 -535 480 -921 1012 -1035 80 -17 173 -18
        1530 -18 1604 0 1493 -4 1705 66 375 125 689 451 799 832 53 182 51 121 51
        1662 0 1598 4 1488 -66 1700 -120 361 -424 664 -787 785 -208 69 -85 64 -1662
        66 -795 1 -1455 -2 -1494 -7z m2944 -527 c276 -84 461 -273 533 -543 l22 -84
        0 -1395 0 -1395 -22 -84 c-74 -275 -269 -470 -544 -544 l-84 -22 -1400 0
        -1400 0 -80 23 c-274 79 -458 264 -537 537 l-23 80 0 1405 0 1405 23 80 c59
        207 180 363 362 468 57 33 184 75 258 86 31 5 678 8 1437 7 l1380 -1 75 -23z">
      </path>
      <path d="M3778 4086 c-99 -27 -165 -96 -187 -198 -24 -106 32 -221 132 -272 238 -121 473 148 324 371 -55 82 -173 125 -269 99z">
      </path>
      <path d="M2386 3829 c-482 -66 -886 -396 -1036 -847 -51 -155 -65 -241 -65
        -422 0 -181 14 -267 65 -422 142 -424 503 -738 960 -835 118 -25 382 -25 500
        0 458 97 818 410 960 835 51 155 65 241 65 422 0 120 -5 188 -18 250 -56 263
        -174 484 -354 662 -180 177 -394 291 -648 343 -95 20 -332 28 -429 14z m384
        -529 c265 -74 459 -269 531 -536 31 -111 31 -297 0 -408 -72 -269 -268 -465
        -537 -537 -115 -32 -299 -32 -409 0 -272 77 -460 265 -536 536 -32 113 -32
        297 0 410 57 205 179 363 361 468 56 32 183 75 258 87 84 13 246 3 332 -20z">
      </path>
    </g>
  </symbol>
  <symbol version="1.0" xmlns="http://www.w3.org/2000/svg" preserveAspectRatio="xMidYMid meet" viewBox="0 0 512.000000 512.000000" id="share">
    <g transform="translate(0.000000,512.000000) scale(0.100000,-0.100000)" stroke="none">
      <path d="M2708 4514 l-3 -609 -95 -7 c-446 -34 -919 -199 -1314 -458 -434
        -286 -767 -661 -996 -1125 -136 -274 -207 -490 -255 -770 -39 -232 -46 -388
        -43 -984 l3 -555 179 420 c197 462 252 574 363 742 180 273 388 493 653 691
        422 316 937 507 1468 544 l42 3 0 -603 c0 -332 3 -603 6 -603 3 0 375 302 827
        672 452 370 990 809 1195 977 204 167 372 307 372 311 0 4 -118 103 -262 221
        -145 117 -677 551 -1183 963 -506 411 -928 755 -937 764 -17 14 -18 -16 -20
        -594z">
      </path>
    </g>
  </symbol>
  <symbol version="1.1" id="twitter" xmlns="http://www.w3.org/2000/svg" xmlns:xlink="http://www.w3.org/1999/xlink" x="0px" y="0px" xml:space="preserve" viewBox="0 0 449.956 449.956">
    <g>
      <path d="M449.956,85.657c-17.702,7.614-35.408,12.369-53.102,14.279c19.985-11.991,33.503-28.931,40.546-50.819
		c-18.281,10.847-37.787,18.268-58.532,22.267c-18.274-19.414-40.73-29.125-67.383-29.125c-25.502,0-47.246,8.992-65.24,26.98
		c-17.984,17.987-26.977,39.731-26.977,65.235c0,6.851,0.76,13.896,2.284,21.128c-37.688-1.903-73.042-11.372-106.068-28.407
		C82.46,110.158,54.433,87.46,31.403,59.101c-8.375,14.272-12.564,29.787-12.564,46.536c0,15.798,3.711,30.456,11.138,43.97
		c7.422,13.512,17.417,24.455,29.98,32.831c-14.849-0.572-28.743-4.475-41.684-11.708v1.142c0,22.271,6.995,41.824,20.983,58.674
		c13.99,16.848,31.645,27.453,52.961,31.833c-7.995,2.091-16.086,3.138-24.269,3.138c-5.33,0-11.136-0.475-17.416-1.42
		c5.9,18.459,16.75,33.633,32.546,45.535c15.799,11.896,33.691,18.028,53.677,18.418c-33.498,26.262-71.66,39.393-114.486,39.393
		c-8.186,0-15.607-0.373-22.27-1.139c42.827,27.596,90.03,41.394,141.612,41.394c32.738,0,63.478-5.181,92.21-15.557
		c28.746-10.369,53.297-24.267,73.665-41.686c20.362-17.415,37.925-37.448,52.674-60.097c14.75-22.651,25.738-46.298,32.977-70.946
		c7.23-24.653,10.848-49.344,10.848-74.092c0-5.33-0.096-9.325-0.287-11.991C421.785,120.202,437.202,104.306,449.956,85.657z">
      </path>
    </g>
  </symbol>
  <symbol fill="none" xmlns="http://www.w3.org/2000/svg" viewBox="0 0 10 14" id="arrow">
    <path d="M3.33331 0H1.2257C0.363029 0 -0.0948462 1.01909 0.478029 1.66408L4.62756 6.33592C4.96401 6.71472 4.96401 7.28528
      4.62756 7.66408L0.47803 12.3359C-0.0948457 12.9809 0.363029 14 1.2257 14H3.33331C3.61908 14 3.8912 13.8777 4.08098 13.6641L9.41017
      7.66408C9.74662 7.28528 9.74662 6.71472 9.41017 6.33593L4.08098 0.335924C3.8912 0.122262 3.61908 0 3.33331 0Z" fill="#fff">
    </path>
  </symbol>
</svg>