<svg width="89" height="90" viewBox="0 0 89 90" fill="none" xmlns="http://www.w3.org/2000/svg">
<path d="M88.8561 24.5826V5.6422C88.8561 4.1458 88.2611 2.71068 87.2019 1.65256C86.1428 0.594445 84.7062 1.84818e-07 83.2083 1.84818e-07H64.4066C62.9282 -9.59029e-06 61.5087 0.578845 60.4527 1.61238L48.38 13.4335C47.3243 14.4669 45.9052 15.0457 44.4272 15.0457C42.9492 15.0457 41.53 14.4669 40.4744 13.4335L28.4017 1.61238C27.3467 0.578575 25.9277 -0.000377648 24.45 1.84818e-07H5.64826C4.15036 1.84818e-07 2.71381 0.594445 1.65464 1.65256C0.595465 2.71068 0.000427246 4.1458 0.000427246 5.6422L0.000427246 24.5826C0.00097071 25.3327 0.151035 26.0751 0.441865 26.7666C0.732694 27.4581 1.15846 28.0849 1.69433 28.6102L38.7694 64.9031C39.8243 65.9369 41.2433 66.5158 42.7211 66.5155H46.14C47.6176 66.5154 49.0364 65.9365 50.0917 64.9031L87.1622 28.6102C87.6981 28.0849 88.1239 27.4581 88.4147 26.7666C88.7055 26.0751 88.8556 25.3327 88.8561 24.5826Z" fill="white"/>
<path d="M5.26413 53.7695C4.83288 53.3388 4.28349 53.0455 3.68542 52.9267C3.08734 52.8079 2.46744 52.8689 1.90407 53.102C1.34069 53.3351 0.859147 53.7299 0.5203 54.2363C0.181452 54.7428 0.0005166 55.3382 0.000366211 55.9474L0.000366211 85.8041C0.000366211 86.6211 0.325251 87.4047 0.903551 87.9824C1.48185 88.5601 2.26619 88.8847 3.08403 88.8847H32.9683C33.5783 88.885 34.1746 88.7045 34.6819 88.3662C35.1892 88.0278 35.5847 87.5468 35.8183 86.9839C36.0519 86.421 36.1132 85.8015 35.9943 85.2038C35.8755 84.6062 35.5818 84.0571 35.1506 83.6262L5.26413 53.7695Z" fill="white"/>
<path d="M83.7411 53.8937L53.8547 83.7459C53.4236 84.1768 53.13 84.7256 53.0111 85.3231C52.8922 85.9206 52.9532 86.5398 53.1866 87.1026C53.4199 87.6655 53.815 88.1465 54.322 88.485C54.829 88.8235 55.425 89.0043 56.0348 89.0044H85.9168C86.7346 89.0044 87.519 88.6799 88.0973 88.1022C88.6756 87.5244 89.0005 86.7409 89.0005 85.9239V56.0694C88.999 55.4613 88.8174 54.8673 88.4786 54.3621C88.1398 53.8569 87.659 53.4632 87.0966 53.2306C86.5342 52.998 85.9155 52.9368 85.3184 53.0548C84.7213 53.1728 84.1725 53.4647 83.7411 53.8937Z" fill="white"/>
</svg>
